<?xml version="1.0" encoding="utf-8"?>
<!-- Generator: Adobe Illustrator 16.0.0, SVG Export Plug-In . SVG Version: 6.00 Build 0)  -->
<!DOCTYPE svg PUBLIC "-//W3C//DTD SVG 1.1//EN" "http://www.w3.org/Graphics/SVG/1.1/DTD/svg11.dtd">
<svg version="1.1" xmlns="http://www.w3.org/2000/svg" xmlns:xlink="http://www.w3.org/1999/xlink" x="0px" y="0px" width="768px"
	 height="1024px" viewBox="0 0 768 1024" enable-background="new 0 0 768 1024" xml:space="preserve">
<g id="圖層_2">
	<rect x="86.158" y="89.105" fill="#FFFFFF" stroke="#000000" stroke-miterlimit="10" width="613.158" height="610.526"/>
	<path fill="#F59F3B" d="M719.269,706.645c0,8.344-6.764,15.107-15.107,15.107H76.729c-8.344,0-15.107-6.764-15.107-15.107V79.213
		c0-8.344,6.764-15.107,15.107-15.107h627.432c8.344,0,15.107,6.764,15.107,15.107V706.645z M679.512,118.971
		c0-8.343-6.763-15.107-15.107-15.107H116.486c-8.344,0-15.108,6.764-15.108,15.107v547.916c0,8.346,6.764,15.109,15.108,15.109
		h547.918c8.345,0,15.107-6.764,15.107-15.109V118.971z"/>
</g>
<g id="圖層_1">
	<rect x="101.378" y="567.631" fill="none" width="578.133" height="110.526"/>
	
		<text transform="matrix(1 0 0 1 121.9741 645.0186)" fill="#F59F3B" font-family="'Helvetica-Bold'" font-size="90" letter-spacing="-2">COMMUNITY</text>
	<g>
		<path fill="#F59F3B" d="M591.964,357.131l-16.479-10.924V311.89c0-2.706-2.455-4.881-5.496-4.881h-27.579
			c-3.039,0-5.477,2.175-5.477,4.881l-0.256,8.628l-64.688-42.8c-2.33-1.555-5.108-1.994-7.657-1.451
			c-2.55-0.543-5.313-0.104-7.657,1.451l-119.972,79.414c-4.647,3.076-5.912,9.315-2.848,13.943
			c3.064,4.644,9.309,5.928,13.965,2.846l116.512-77.12l116.526,77.12c4.642,3.082,10.9,1.798,13.976-2.846
			C597.896,366.447,596.619,360.208,591.964,357.131z M350.449,395.052v112.932c0,6.667,5.406,12.079,12.103,12.079h103.663
			c-0.498-1.174-0.803-2.473-0.803-3.828v-80.107c0-5.298,4.303-9.59,9.592-9.59h48.166c5.285,0,9.578,4.292,9.578,9.59v80.107
			c0,1.355-0.289,2.654-0.793,3.828h32.303c6.683,0,12.094-5.412,12.094-12.079V393.817l-112.02-74.129L350.449,395.052z
			 M440.521,452.512c0,3.119-3.071,5.687-6.878,5.687h-34.581c-3.804,0-6.903-2.568-6.903-5.687v-47.609
			c0-3.149,3.1-5.702,6.903-5.702h34.581c3.807,0,6.878,2.552,6.878,5.702V452.512z"/>
		<path fill="#F59F3B" d="M536.331,164.251c-16.88-11.116-14.303-20.358-14.303-20.358s-42.896,47.651,26.378,91.333
			c-0.073-8.841-3.261-17.247-6.226-24.649c-3.463-8.3-7.062-15.665-9.707-22.101c-5.691-12.781-5.948-21.964-5.836-21.903
			c-0.089,0.024,1.59,8.647,8.481,20.396c3.268,5.969,7.5,12.896,11.582,21.164c3.854,8.244,8.305,18.064,7.452,30.169
			c0,0.133-0.028,0.231-0.038,0.347c0.452,0.265,0.891,0.528,1.323,0.77C563.036,212.413,573.074,188.446,536.331,164.251z"/>
		<path fill="#F59F3B" d="M592.909,176.618c0,0,4.102,12.387-17.304,25.774c-45.653,28.558-32.111,60.17-20.213,95.46
			c-2.087-13.23,2.041-23.337,5.736-31.887c4.279-9.224,9.08-16.777,12.617-23.41c7.68-12.875,8.496-23.001,8.364-23.055
			c0.146-0.061,1.469,11.042-4.319,25.42c-2.572,7.285-6.366,15.513-9.772,24.898c-2.676,7.754-5.444,16.493-4.651,26.204
			C653.794,243.486,592.909,176.618,592.909,176.618z"/>
	</g>
	<g>
		<path fill="#F59F3B" d="M274.105,457.113c4.218,4.465,3.83,11.677-0.883,16.136l0,0c-4.734,4.461-11.947,4.459-16.168-0.006
			l-55.557-58.757c-4.221-4.457-3.818-11.681,0.894-16.142l0,0c4.713-4.45,11.936-4.446,16.165,0.017L274.105,457.113z"/>
		<path fill="#F59F3B" d="M270.206,424.887c2.462,2.597,1.589,7.409-1.929,10.728l0,0c-3.525,3.337-8.368,3.932-10.83,1.327
			l-32.339-34.206c-2.463-2.601-1.59-7.396,1.938-10.737l0,0c3.526-3.329,8.358-3.921,10.82-1.327L270.206,424.887z"/>
		<g>
			<path fill="#F59F3B" d="M310.757,302.342l70.458-89.579c4.449-5.669,3.459-13.867-2.199-18.313
				c-5.657-4.457-13.855-3.475-18.307,2.192l-63.777,81.096h-37.345l-63.759-81.096c-4.458-5.667-12.647-6.649-18.305-2.192
				c-5.676,4.446-6.658,12.644-2.201,18.313l70.44,89.579c0.625,0.809,1.345,1.479,2.09,2.106v59.031l0.261-1.052v38.475h60.722
				v-96.581C309.521,303.744,310.185,303.087,310.757,302.342z"/>
			<path fill="#F59F3B" d="M277.542,269.923c16.014,0,28.985-12.977,28.985-28.978c0-16.007-12.971-28.982-28.985-28.982
				c-16.004,0-28.976,12.975-28.976,28.982C248.565,256.946,261.537,269.923,277.542,269.923z"/>
		</g>
		<path fill="#F59F3B" d="M305.61,465.047c0,6.669-5.705,12.095-12.769,12.095l0,0c-7.04,0-12.77-5.426-12.77-12.095v-88
			c0-6.691,5.73-12.088,12.77-12.088l0,0c7.064,0,12.769,5.397,12.769,12.088V465.047z"/>
		<path fill="#F59F3B" d="M278.295,464.236c0,6.688-5.715,12.106-12.781,12.106l0,0c-7.054,0-12.769-5.419-12.769-12.106v-87.99
			c0-6.672,5.715-12.092,12.769-12.092l0,0c7.065,0,12.781,5.42,12.781,12.092V464.236z"/>
	</g>
</g>
</svg>
