<?xml version="1.0" encoding="utf-8"?>
<!-- Generator: Adobe Illustrator 16.0.0, SVG Export Plug-In . SVG Version: 6.00 Build 0)  -->
<!DOCTYPE svg PUBLIC "-//W3C//DTD SVG 1.1//EN" "http://www.w3.org/Graphics/SVG/1.1/DTD/svg11.dtd">
<svg version="1.1" xmlns="http://www.w3.org/2000/svg" xmlns:xlink="http://www.w3.org/1999/xlink" x="0px" y="0px" width="768px"
	 height="1024px" viewBox="0 0 768 1024" enable-background="new 0 0 768 1024" xml:space="preserve">
<g id="圖層_2">
	<rect x="86.158" y="89.105" fill="#FFFFFF" stroke="#000000" stroke-miterlimit="10" width="613.158" height="610.526"/>
	<path fill="#DF5C85" d="M719.269,706.645c0,8.344-6.764,15.107-15.107,15.107H76.729c-8.344,0-15.107-6.764-15.107-15.107V79.213
		c0-8.344,6.764-15.107,15.107-15.107h627.432c8.344,0,15.107,6.764,15.107,15.107V706.645z M679.512,118.971
		c0-8.343-6.763-15.107-15.107-15.107H116.486c-8.344,0-15.108,6.764-15.108,15.107v547.916c0,8.346,6.764,15.109,15.108,15.109
		h547.918c8.345,0,15.107-6.764,15.107-15.109V118.971z"/>
</g>
<g id="圖層_1">
	<rect x="101.378" y="567.631" fill="none" width="578.133" height="110.526"/>
	
		<text transform="matrix(1 0 0 1 131.9497 645.0186)" fill="#DF5C85" font-family="'Helvetica-Bold'" font-size="90" letter-spacing="-2">EDUCATION</text>
	<g>
		<g>
			<path fill="#DF5C85" d="M564.606,277.59l18.153-8.251l-199.684-90.76L183.389,269.34l199.688,90.76l154.3-70.133v54.367
				c-2.813,2.878-4.537,6.642-4.537,10.769c0,9.008,8.145,16.337,18.153,16.337c10.011,0,18.155-7.329,18.155-16.337
				c0-4.126-1.725-7.89-4.539-10.769V277.59H564.606z"/>
		</g>
	</g>
	<g>
		<g>
			<path fill="#DF5C85" d="M383.076,387.552l-127.074-57.757v119.239c0,31.578,56.892,57.176,127.073,57.176
				c70.18,0,127.072-25.599,127.072-57.176V329.795L383.076,387.552z"/>
		</g>
	</g>
</g>
</svg>
