<?xml version="1.0" encoding="utf-8"?>
<!-- Generator: Adobe Illustrator 16.0.0, SVG Export Plug-In . SVG Version: 6.00 Build 0)  -->
<!DOCTYPE svg PUBLIC "-//W3C//DTD SVG 1.1//EN" "http://www.w3.org/Graphics/SVG/1.1/DTD/svg11.dtd">
<svg version="1.1" xmlns="http://www.w3.org/2000/svg" xmlns:xlink="http://www.w3.org/1999/xlink" x="0px" y="0px" width="768px"
	 height="1024px" viewBox="0 0 768 1024" enable-background="new 0 0 768 1024" xml:space="preserve">
<g id="圖層_2">
	<rect x="86.158" y="89.105" fill="#FFFFFF" stroke="#000000" stroke-miterlimit="10" width="613.158" height="610.526"/>
	<path fill="#F0BB35" d="M719.269,706.645c0,8.344-6.764,15.107-15.107,15.107H76.729c-8.344,0-15.107-6.764-15.107-15.107V79.213
		c0-8.344,6.764-15.107,15.107-15.107h627.432c8.344,0,15.107,6.764,15.107,15.107V706.645z M679.512,118.971
		c0-8.343-6.763-15.107-15.107-15.107H116.486c-8.344,0-15.108,6.764-15.108,15.107v547.916c0,8.346,6.764,15.109,15.108,15.109
		h547.918c8.345,0,15.107-6.764,15.107-15.109V118.971z"/>
</g>
<g id="圖層_1">
	<rect x="101.378" y="507" fill="none" width="578.133" height="155.157"/>
	<text transform="matrix(0.8 0 0 1 251.9644 584.3877)"><tspan x="0" y="0" fill="#F0BB35" font-family="'Helvetica-Bold'" font-size="90" letter-spacing="1.25">FAMILY </tspan><tspan x="-64.806" y="72" fill="#F0BB35" font-family="'Helvetica-Bold'" font-size="90" letter-spacing="1.25">VIOLENCE</tspan></text>
	<g>
		<path fill="#F0BB35" d="M272.936,351.148c0-13.153,10.625-23.66,23.446-23.66h0.142c12.969,0,23.52,10.643,23.52,23.845
			c0,2.406,1.95,4.308,4.357,4.308c2.405,0,4.357-1.878,4.357-4.283c0-18.006-14.461-32.583-32.233-32.583h-0.142
			c-17.626,0-32.16,14.415-32.16,32.373v4.803h8.714V351.148L272.936,351.148z"/>
		<path fill="#F0BB35" d="M324.343,364.761c-2.407,0-4.357,1.95-4.357,4.357v9.876c0,2.405,1.95,4.354,4.357,4.354
			s4.357-1.95,4.357-4.354v-9.876C328.7,366.71,326.75,364.761,324.343,364.761z"/>
		<path fill="#F0BB35" d="M348.089,366.231l-6.984-6.982c-1.699-1.703-4.458-1.703-6.16,0c-1.702,1.701-1.702,4.459,0,6.16
			l6.981,6.982c0.852,0.851,1.966,1.277,3.08,1.277c1.117,0,2.23-0.426,3.083-1.276C349.789,370.69,349.789,367.933,348.089,366.231
			z"/>
		<path fill="#F0BB35" d="M307.869,359.249l-6.981,6.982c-1.699,1.703-1.699,4.459,0.002,6.162c0.85,0.85,1.964,1.276,3.08,1.276
			c1.114,0,2.23-0.426,3.08-1.276l6.982-6.984c1.704-1.701,1.704-4.459,0-6.16C312.333,357.546,309.573,357.546,307.869,359.249z"/>
		<path fill="#F0BB35" d="M291.619,385.961c-2.783-1.317-5.322-2.405-8.809-3.244v-12.219c0-3.195-2.261-5.833-5.454-5.833h-0.16
			h-18.144c-3.193,0-5.867,2.638-5.867,5.833v12.224c-2.903,0.841-5.832,1.934-8.615,3.252
			c-18.658,8.827-31.519,27.82-31.519,49.833c0,30.432,24.698,55.102,55.13,55.102c30.431,0,55.064-24.669,55.064-55.102
			C323.246,413.786,310.291,394.785,291.619,385.961z M268.203,472.086c-20.005,0-36.281-16.275-36.281-36.279
			c0-2.408,1.952-4.357,4.359-4.357c2.405,0,4.355,1.95,4.355,4.357c0,15.199,12.368,27.566,27.567,27.566
			c2.408,0,4.357,1.95,4.357,4.356C272.56,470.135,270.61,472.086,268.203,472.086z"/>
	</g>
	<g>
		<g>
			<path fill="#F0BB35" d="M552.73,453.568l-0.546-0.64c-4.943-5.804-9.702-11.682-13.457-18.198
				c-1.126-1.956-2.187-3.91-3.188-5.919c-0.961-1.94-1.771-3.911-2.614-5.897c-0.433-1.021-0.783-2.056-1.135-3.101
				c-0.383-1.139-0.856-2.282-1.113-3.45c-0.385-1.46-0.862-2.93-1.126-4.413c-0.837-4.677-1.547-9.296-1.545-14.046
				c0.003-4.68,0.586-9.272,1.421-13.882c1.043-4.417,2.285-8.752,4.026-12.991c0.839-2.049,1.765-4.08,2.802-6.054
				c3.592-6.849,14.164-18.834,12.569-30.733c-0.569-4.582-2.193-9.043-3.255-13.548c-0.931-3.955-1.725-7.937-2.34-11.943
				c-0.936-6.111-1.127-12.292-1.335-18.464c-0.284-8.529,5.615-21.607,6.497-23.808c1.25-3.123,2.075-6.387,2.34-9.7
				c0.521-6.551-1.023-13.198-4.431-19c-3.694-6.289-9.529-11.464-16.533-14.721c-7.812-3.631-14.069-4.835-26.77-2.878
				c-3.622,0.558-7.269,1.245-10.872,1.879l-103.123,18.174c-0.902,0.16-1.81,0.319-2.711,0.478
				c-4.712,0.846-8.326,4.243-9.165,8.405c-1.179-1.637-3.288-2.658-5.594-2.496l-42.002,2.934
				c-4.433-5.945-12.456-9.082-20.282-7.936c-3.706,0.542-7.214,2.016-10.058,4.23c-1.291,1.005-2.423,2.145-3.769,3.097
				c-1.405,0.995-2.9,1.885-4.429,2.714c-4.008,2.172-8.276,3.96-12.611,5.529c-1.772,0.641-3.562,1.246-5.374,1.79
				c-2.239,0.671-4.433,1.276-6.47,2.39c-1.457,0.618-2.765,1.534-3.833,2.704c-0.792,0.712-1.52,1.486-2.172,2.306
				c-0.704,0.882-1.212,1.799-2.076,2.559c-1.521,1.467-3.67,2.597-5.611,3.539c-3.714,1.802-7.66,2.93-11.768,3.724
				c-2.434,0.47-4.889,0.699-7.358,0.969c-2.415,0.194-5.002,0.308-7.422,0.188c-2.419-0.119-4.864-0.106-7.273-0.354
				c-2.143-0.222-4.285-0.468-6.426-0.698c-0.477-0.051-0.954-0.102-1.43-0.155c-3.812-0.412-7.433,1.964-8.199,5.36
				c-0.797,3.527,1.729,7.09,5.604,7.917c3.552,0.761,7.14,1.731,10.762,2.166c2.257,0.323,4.528,0.749,6.801,0.957
				c2.431,0.176,4.865,0.396,7.3,0.51c4.09,0.191,8.197-0.077,12.264-0.436c4.24-0.374,8.337-1.359,12.415-2.433
				c-6.73,4.737-14.046,8.685-21.786,11.922c-3.684,1.541-7.464,3.017-11.321,4.173c-2.598,0.779-5.216,1.508-7.822,2.263
				c-3.772,1.11-5.949,4.834-4.862,8.277c1.067,3.385,4.988,5.494,8.79,4.739c3.649-0.727,7.342-1.352,10.934-2.285
				c2.411-0.627,4.867-1.177,7.244-1.908c2.439-0.751,4.858-1.56,7.287-2.338c2.349-0.897,4.699-1.793,7.047-2.689
				c2.389-1.032,4.757-2.096,7.12-3.175c4.404-2.252,8.822-4.504,12.919-7.203c2.062-1.356,4.086-2.732,6.082-4.167
				c0.898-0.646,1.77-1.316,2.635-2.001c0.577-0.454,1.067-0.979,1.803-1.187c1.806-0.512,3.595-1.067,5.373-1.653
				c6.074-2.003,12.019-4.359,17.719-7.123c4.906-2.379,9.647-5.068,14.005-8.206c4.71-3.391,9.208-7.204,10.93-12.591l41.006-7.49
				c1.978-0.36,3.577-1.573,4.367-3.167c1.704,4.465,6.605,7.469,12.037,6.997l80.408-7.021
				c-5.262,15.624-6.431,32.239-5.327,48.473c0.817,12.006,2.907,23.927,5.84,35.654c-7.988,17.052-13.833,35.005-17.066,53.298
				c-1.648,9.321-2.608,18.748-2.855,28.186c-0.24,9.33,0.429,18.636,1.675,27.893c0.908,6.756,2.298,13.539,4.214,20.122
				c1.371,4.718,2.924,9.359,4.549,14.009c2.285,6.477,10.077,10.294,17.323,8.456c7.17-1.816,11.623-8.607,9.958-15.165
				c-0.586-2.327-1.155-4.66-1.774-6.979c-1.13-4.238-1.678-8.632-2.313-12.943c-0.681-4.603-0.883-9.258-1.091-13.893
				c-0.166-4.659-0.056-9.382,0.325-14.031c1.112-13.601,3.903-26.983,8.326-40.026c-0.094,9.43,0.919,18.937,3.646,28.062
				c2.552,8.537,5.987,16.973,10.813,24.692c3.975,6.356,8.331,12.445,13.36,18.172c3.622,4.123,7.598,7.946,11.576,11.782
				c5.223,4.993,14.194,5.334,19.832,0.716C556.426,466.416,557.166,458.773,552.73,453.568z"/>
			<path fill="#F0BB35" d="M537.789,217.382c14.23-3.75,25.079-14.813,27.503-28.029c2.454-13.391-4.139-27.227-16.568-34.832
				c-12.407-7.59-28.948-8.018-41.815-1.066c-12.613,6.815-20.044,19.931-18.777,33.165c1.288,13.479,11.3,25.33,25.34,30.008
				C521.247,219.219,529.837,219.478,537.789,217.382L537.789,217.382z"/>
			<path fill="#F0BB35" d="M338.215,245.576c7.231-1.601,13.048-6.759,14.97-13.259c1.948-6.59-0.377-13.817-5.928-18.436
				c-5.511-4.584-13.518-6.104-20.604-3.916c-7.005,2.162-12.283,7.749-13.577,14.332c-1.212,6.171,1.206,12.649,6.309,16.894
				C324.416,245.377,331.573,247.048,338.215,245.576L338.215,245.576z"/>
		</g>
	</g>
</g>
</svg>
