<?xml version="1.0" encoding="utf-8"?>
<!-- Generator: Adobe Illustrator 16.0.0, SVG Export Plug-In . SVG Version: 6.00 Build 0)  -->
<!DOCTYPE svg PUBLIC "-//W3C//DTD SVG 1.1//EN" "http://www.w3.org/Graphics/SVG/1.1/DTD/svg11.dtd">
<svg version="1.1" xmlns="http://www.w3.org/2000/svg" xmlns:xlink="http://www.w3.org/1999/xlink" x="0px" y="0px" width="768px"
	 height="1024px" viewBox="0 0 768 1024" enable-background="new 0 0 768 1024" xml:space="preserve">
<g id="圖層_2">
	<rect x="86.158" y="89.105" fill="#FFFFFF" stroke="#000000" stroke-miterlimit="10" width="613.158" height="610.526"/>
	<path fill="#4EA944" d="M719.269,706.645c0,8.344-6.764,15.107-15.107,15.107H76.729c-8.344,0-15.107-6.764-15.107-15.107V79.213
		c0-8.344,6.764-15.107,15.107-15.107h627.432c8.344,0,15.107,6.764,15.107,15.107V706.645z M679.512,118.971
		c0-8.343-6.763-15.107-15.107-15.107H116.486c-8.344,0-15.108,6.764-15.108,15.107v547.916c0,8.346,6.764,15.109,15.108,15.109
		h547.918c8.345,0,15.107-6.764,15.107-15.109V118.971z"/>
</g>
<g id="圖層_1">
	<rect x="101.378" y="530.474" fill="none" width="578.133" height="141.684"/>
	<text transform="matrix(0.8 0 0 1 263.6294 592.3838)"><tspan x="0" y="0" fill="#4EA944" font-family="'Helvetica-Bold'" font-size="72" letter-spacing="1.25">GENDER</tspan><tspan x="-29.785" y="72" fill="#4EA944" font-family="'Helvetica-Bold'" font-size="72" letter-spacing="1.25">EQUALITY</tspan></text>
	<g id="XMLID_490_">
		<path id="XMLID_491_" fill="#4EA944" d="M577.28,202.721c0-24.184-22.58-43.86-50.331-43.86c-27.752,0-50.33,19.676-50.33,43.86
			c0,24.183,22.578,43.859,50.33,43.859C554.7,246.58,577.28,226.904,577.28,202.721z"/>
		<path id="XMLID_493_" fill="#4EA944" d="M443.066,348.918v48.731c0,8.074,7.511,14.621,16.776,14.621h16.776v63.351
			c0,8.074,7.513,14.62,16.775,14.62h67.108c9.265,0,16.777-6.546,16.777-14.62V412.27h16.776c9.264,0,16.776-6.546,16.776-14.621
			v-48.731c0-40.307-37.631-73.099-83.884-73.099S443.066,308.611,443.066,348.918z"/>
		<path id="XMLID_494_" fill="#4EA944" d="M258.522,246.58c27.751,0,50.33-19.676,50.33-43.859c0-24.184-22.579-43.86-50.33-43.86
			c-27.752,0-50.33,19.676-50.33,43.86C208.193,226.904,230.771,246.58,258.522,246.58z"/>
		<path id="XMLID_495_" fill="#4EA944" d="M208.193,475.621c0,8.074,7.511,14.62,16.776,14.62h67.106
			c9.266,0,16.777-6.546,16.777-14.62V412.27h16.777c6.355,0,12.163-3.129,15.005-8.082c2.842-4.954,2.229-10.88-1.584-15.311
			l-30.198-35.087v-34.112c0-24.184-22.579-43.86-50.33-43.86c-27.752,0-50.33,19.676-50.33,43.86v34.112l-30.198,35.087
			c-3.812,4.431-4.426,10.357-1.584,15.311c2.842,4.953,8.65,8.082,15.005,8.082h16.777V475.621z"/>
		<path id="XMLID_496_" fill="#4EA944" d="M392.736,158.861c-9.267,0-16.777,6.545-16.777,14.62v302.14
			c0,8.074,7.511,14.62,16.777,14.62c9.263,0,16.775-6.546,16.775-14.62v-302.14C409.512,165.407,401.999,158.861,392.736,158.861z"
			/>
	</g>
</g>
</svg>
