<?xml version="1.0" encoding="utf-8"?>
<!-- Generator: Adobe Illustrator 16.0.0, SVG Export Plug-In . SVG Version: 6.00 Build 0)  -->
<!DOCTYPE svg PUBLIC "-//W3C//DTD SVG 1.1//EN" "http://www.w3.org/Graphics/SVG/1.1/DTD/svg11.dtd">
<svg version="1.1" xmlns="http://www.w3.org/2000/svg" xmlns:xlink="http://www.w3.org/1999/xlink" x="0px" y="0px" width="768px"
	 height="1024px" viewBox="0 0 768 1024" enable-background="new 0 0 768 1024" xml:space="preserve">
<g id="圖層_2">
	<rect x="86.158" y="89.105" fill="#FFFFFF" stroke="#000000" stroke-miterlimit="10" width="613.158" height="610.526"/>
	<path fill="#0E5294" d="M719.269,706.645c0,8.344-6.764,15.107-15.107,15.107H76.729c-8.344,0-15.107-6.764-15.107-15.107V79.213
		c0-8.344,6.764-15.107,15.107-15.107h627.432c8.344,0,15.107,6.764,15.107,15.107V706.645z M679.512,118.971
		c0-8.343-6.763-15.107-15.107-15.107H116.486c-8.344,0-15.108,6.764-15.108,15.107v547.916c0,8.346,6.764,15.109,15.108,15.109
		h547.918c8.345,0,15.107-6.764,15.107-15.109V118.971z"/>
</g>
<g id="圖層_1">
	<rect x="148.339" y="567.631" fill="none" width="484.211" height="110.526"/>
	
		<text transform="matrix(1 0 0 1 175.186 653.6172)" fill="#0E5294" font-family="'Helvetica-Bold'" font-size="100" letter-spacing="5">HEALTH</text>
	<g>
		<path fill="#0E5294" d="M580.299,436.917l-50.233-103.954c0.649-0.812,63.623-77.824-2.11-160.599
			c-18.259-22.965-46.499-34.651-74.414-34.651c-27.917,0-54.94,11.848-74.417,34.651l-5.03,5.924l-5.032-5.924
			c-19.476-21.992-46.5-34.651-74.415-34.651c-27.917,0-54.939,12.66-74.416,34.651c-39.764,44.796-39.764,118.319,0,163.114
			l140.31,160.598c8.845,12.417,22.397,5.194,26.212,0.812l46.5-51.531l24.507,50.719c26.374,50.314,74.821,39.683,91.295,32.137
			C565.203,520.827,603.832,491.207,580.299,436.917z M426.518,354.955c-4.222-8.44-10.308-33.028,16.066-47.311
			c4.95-2.678,32.136-11.28,47.312,16.879l23.371,48.366l-63.459,30.27L426.518,354.955z M374.905,460.612L246.443,313.567
			c-28.728-32.948-28.728-86.183,0-119.211c12.659-15.175,30.431-23.695,49.015-23.695c17.772,0,35.463,8.439,49.016,23.695
			l16.068,18.584c9.008,11.523,21.992,6.735,26.212,1.704l17.771-20.288c12.66-15.175,30.432-23.695,49.017-23.695
			c17.771,0,35.463,8.439,49.015,23.695c24.102,27.917,28.078,71.981,9.981,104.523c-12.579-17.609-44.553-40.17-85.208-21.749
			c-16.149,7.303-53.317,39.277-31.244,91.295l21.424,44.309L374.905,460.612z M535.503,499.484
			c-5.356,1.867-30.107,11.686-47.311-16.879L464.17,432.86l63.461-30.27l24.021,49.583
			C563.501,477.331,544.591,496.4,535.503,499.484z"/>
	</g>
</g>
</svg>
