<?xml version="1.0" encoding="utf-8"?>
<!-- Generator: Adobe Illustrator 16.0.0, SVG Export Plug-In . SVG Version: 6.00 Build 0)  -->
<!DOCTYPE svg PUBLIC "-//W3C//DTD SVG 1.1//EN" "http://www.w3.org/Graphics/SVG/1.1/DTD/svg11.dtd">
<svg version="1.1" xmlns="http://www.w3.org/2000/svg" xmlns:xlink="http://www.w3.org/1999/xlink" x="0px" y="0px" width="768px"
	 height="1024px" viewBox="0 0 768 1024" enable-background="new 0 0 768 1024" xml:space="preserve">
<g id="圖層_2">
	<rect x="86.158" y="89.105" fill="#FFFFFF" stroke="#000000" stroke-miterlimit="10" width="613.158" height="610.526"/>
	<path fill="#1C1B46" d="M719.269,706.645c0,8.344-6.764,15.107-15.107,15.107H76.729c-8.344,0-15.107-6.764-15.107-15.107V79.213
		c0-8.344,6.764-15.107,15.107-15.107h627.432c8.344,0,15.107,6.764,15.107,15.107V706.645z M679.512,118.971
		c0-8.343-6.763-15.107-15.107-15.107H116.486c-8.344,0-15.108,6.764-15.108,15.107v547.916c0,8.346,6.764,15.109,15.108,15.109
		h547.918c8.345,0,15.107-6.764,15.107-15.109V118.971z"/>
</g>
<g id="圖層_1">
	<rect x="101.378" y="530.474" fill="none" width="578.133" height="141.684"/>
	<text transform="matrix(0.8 0 0 1 286.8462 592.3838)"><tspan x="0" y="0" fill="#1C1B46" font-family="'Helvetica-Bold'" font-size="72" letter-spacing="-1.25">PUBLIC </tspan><tspan x="-194.79" y="72" fill="#1C1B46" font-family="'Helvetica-Bold'" font-size="72" letter-spacing="-1.25">TRANSPORTATION</tspan></text>
	<g>
		<path fill-rule="evenodd" clip-rule="evenodd" fill="#1C1B46" d="M494.176,295.551c-0.287,20.062,0.06,50.25-0.304,80.481
			c-0.258,20.187-12.332,30.903-28.243,39.305c-0.793,0.43-1.663,0.586-2.527,0.925c-5.925,2.448-6.415,3.777-3.062,9.42
			c14.694,24.338,31.394,47.454,46.914,71.26c0.76,1.211,1.663,2.434,2.329,3.728c0.716,1.459,2.973,2.813,1.965,4.405
			c-0.936,1.459-3.214,0.76-4.954,0.698c-6.751-0.104-13.511-0.435-20.234-0.435c-2.57,0-3.931-1.008-5.307-3.04
			c-11.16-16.491-22.617-32.824-33.585-49.44c-2.759-4.163-5.588-5.787-10.544-5.787c-34.773,0.126-69.519,0.049-104.267-0.287
			c-5.66-0.099-9.25,1.872-12.581,6.194c-12.209,15.955-23.061,32.908-34.243,49.55c-1.784,2.627-3.633,3.678-6.81,3.562
			c-6.588-0.319-13.191-0.099-19.768-0.258c-5.068-0.166-5.31-0.637-2.571-4.79c15.433-23.361,31.559-46.271,46.504-69.967
			c1.6-2.505,2.976-5.073,4.611-7.538c1.44-2.208,0.919-3.826-1.275-5.081c-1.178-0.606-2.315-1.25-3.534-1.707
			c-16.198-5.715-24.652-18.57-30.997-33.385c-0.592-1.263-0.446-2.872-0.446-4.337c0.024-56.461,0.096-112.935,0.229-169.445
			c0-5.125,0.255-10.253,0.545-15.362c0.895-16.226,9.233-27.604,22.92-35.646c6.274-3.654,12.66-5.159,20.011-5.083
			c43.137,0.383,86.222-0.251,129.371,0.586c4.983,0.091,9.949,0.424,14.904,0.676c4.52,0.167,8.649,1.541,12.349,4.07
			c13.357,8.883,23.263,19.748,22.26,37.22c-0.291,5.123,0.286,10.308,0.286,15.413C494.176,236.106,494.176,260.77,494.176,295.551
			z M319.231,192.233c-11.174,0.46-21.637,10.102-22.312,21.86c-0.735,12.286-1.894,24.674-0.501,36.896
			c1.69,15.156,7.739,23.577,23.1,24.141c4.982,0.218,9.968,0.793,14.906,0.793c29.015,0.142,58.062,0.142,87.071,0.171
			c8.781,0.031,17.558-0.137,26.333-0.917c11.7-1.052,20.702-9.713,21.39-21.28c0.732-13.029,1.096-26.12-0.341-39.115
			c-1.624-14.776-10.225-22.43-25.288-23.231c-20.663-1.121-41.292-0.207-62.805-0.325
			C360.829,191.94,340.01,191.436,319.231,192.233z M446.672,309.031c-12.47,0.202-22.672,10.783-22.595,23.429
			c0.127,12.857,10.615,23.625,23.091,23.67c12.377,0,23.262-10.756,23.173-22.99C470.313,320.065,459.226,308.824,446.672,309.031z
			 M318.282,309.329c-11.873,0.075-22.499,11.111-22.337,23.131c0.14,12.554,11.256,23.873,23.17,23.67
			c11.031-0.217,22.758-11.404,22.571-21.712C341.499,319.571,331.836,309.193,318.282,309.329z"/>
	</g>
</g>
</svg>
