<?xml version="1.0" encoding="utf-8"?>
<!-- Generator: Adobe Illustrator 16.0.0, SVG Export Plug-In . SVG Version: 6.00 Build 0)  -->
<!DOCTYPE svg PUBLIC "-//W3C//DTD SVG 1.1//EN" "http://www.w3.org/Graphics/SVG/1.1/DTD/svg11.dtd">
<svg version="1.1" xmlns="http://www.w3.org/2000/svg" xmlns:xlink="http://www.w3.org/1999/xlink" x="0px" y="0px" width="768px"
	 height="1024px" viewBox="0 0 768 1024" enable-background="new 0 0 768 1024" xml:space="preserve">
<g id="圖層_2">
	<rect x="86.158" y="89.105" fill="#FFFFFF" stroke="#000000" stroke-miterlimit="10" width="613.158" height="610.526"/>
	<path fill="#89B730" d="M719.269,706.645c0,8.344-6.764,15.107-15.107,15.107H76.729c-8.344,0-15.107-6.764-15.107-15.107V79.213
		c0-8.344,6.764-15.107,15.107-15.107h627.432c8.344,0,15.107,6.764,15.107,15.107V706.645z M679.512,118.971
		c0-8.343-6.763-15.107-15.107-15.107H116.486c-8.344,0-15.108,6.764-15.108,15.107v547.916c0,8.346,6.764,15.109,15.108,15.109
		h547.918c8.345,0,15.107-6.764,15.107-15.109V118.971z"/>
</g>
<g id="圖層_1">
	<rect x="101.378" y="567.631" fill="none" width="578.133" height="110.526"/>
	
		<text transform="matrix(1 0 0 1 131.9277 645.0186)" fill="#89B730" font-family="'Helvetica-Bold'" font-size="90" letter-spacing="-2">REGIONALS</text>
	<g>
		<g>
			<path fill="#89B730" d="M406.72,509.979c0.004,0.002,0.01,0,0.016-0.001c-0.006-0.003-0.012-0.007-0.018-0.011L406.72,509.979z"
				/>
			<path fill="#89B730" d="M303.735,283.644c0.267,7.064,2.186,14.675,6.558,21.36c4.333,6.709,10.997,12.448,19.596,16.986
				c8.553,4.574,18.935,8.004,30.308,10.482c36.521,7.873,57.097,9.65,85.226,19.609c7.664,2.762,15.333,5.964,22.973,9.555
				c7.614,3.689,15.179,7.834,22.556,12.584c7.383,4.729,14.533,10.18,21.262,16.26c6.723,6.087,12.994,12.87,18.496,20.246
				c5.512,7.37,10.233,15.325,13.979,23.534c3.758,8.208,6.531,16.649,8.395,24.957c1.868,8.312,2.839,16.484,3.143,24.278
				c0.303,7.805-0.051,15.238-0.823,22.222c-0.013,0.115-0.03,0.226-0.043,0.341h77.71c0,0-137.859-301.669-240.33-301.669
				c-26.173,0-54.652,19.684-82.555,48.99c-1.23,2.721-2.793,6.577-4.132,11.468C304.621,270.087,303.458,276.561,303.735,283.644z"
				/>
			<path fill="#89B730" d="M502.746,500.053c1.036-4.177,2.159-9.823,2.712-15.556c0.572-5.724,0.572-11.506,0.266-15.831
				c-0.193-2.163-0.332-3.96-0.52-5.217c-0.178-1.256-0.276-1.975-0.276-1.975l-17.275,1.695c0,0,0.052,0.607,0.145,1.669
				c0.099,1.06,0.12,2.592,0.188,4.415c0.052,3.659-0.226,8.552-0.988,13.418c-0.749,4.867-1.987,9.687-3.091,13.265
				c-0.579,1.787-1.051,3.275-1.438,4.306c-0.372,1.033-0.582,1.624-0.582,1.624l15.562,4.191h3.644
				c0.078-0.278,0.175-0.593,0.289-0.986C501.753,503.874,502.205,502.134,502.746,500.053z"/>
			<path fill="#89B730" d="M423.675,495.255c3.316-3.713,6.662-7.984,9.51-12.51c2.848-4.54,5.197-9.258,6.676-14.186
				c1.455-4.942,2.125-10.21,0.95-16.468c-1.171-6.214-4.358-13.445-9.995-20.897c-2.811-3.718-6.157-7.477-9.914-11.212
				c-3.857-3.687-8.059-7.375-12.648-10.928c-9.168-7.125-19.677-13.774-30.668-19.895c-6.212-3.402-20.309-10.176-21.99-11
				c-1.678-0.827-3.347-1.653-5.014-2.474c-1.65-0.862-3.295-1.722-4.932-2.577c-1.621-0.9-3.234-1.796-4.846-2.686
				c-6.396-3.652-12.538-7.597-18.283-11.885c-5.744-4.294-11.078-8.969-15.788-13.984c-4.722-4.993-8.749-10.422-11.889-16.014
				c-1.543-2.815-2.916-5.635-3.974-8.502c-0.574-1.409-0.996-2.865-1.455-4.269c-0.386-1.433-0.789-2.831-1.062-4.246
				c-0.612-2.804-0.96-5.571-1.106-8.251c-0.176-2.676-0.092-5.275,0.113-7.761c0.424-4.977,1.5-9.509,2.85-13.579
				c1.686-4.963,3.756-9.239,5.895-12.932c-75.87,88.63-143.7,237.059-143.7,237.059h260.096c0.576-0.473,1.184-0.984,1.818-1.537
				C417.085,502.124,420.353,498.968,423.675,495.255z"/>
			<path fill="#89B730" d="M318.171,330.016c-0.637-0.547-1.396-1.128-2.15-1.826c-3.08-2.722-6.902-6.639-9.91-11.046
				c-3.07-4.375-5.237-9.208-6.402-12.947c-0.574-1.872-0.951-3.458-1.183-4.574c-0.21-1.122-0.333-1.762-0.333-1.762l-2.938,0.318
				c0,0,0.088,0.678,0.241,1.865c0.183,1.184,0.479,2.874,0.979,4.88c1.005,4.006,3.021,9.256,6.031,14.076
				c2.951,4.847,6.793,9.211,9.91,12.252c0.758,0.78,1.525,1.431,2.17,2.043c0.646,0.611,1.234,1.117,1.728,1.525
				c0.978,0.826,1.538,1.3,1.538,1.3l3.535-3.588c0,0-0.55-0.421-1.511-1.156C319.389,331.01,318.807,330.559,318.171,330.016z"/>
			<path fill="#89B730" d="M485.932,418.594c-0.219-0.271-0.504-0.687-0.935-1.18c-0.844-0.987-2.019-2.419-3.484-4.092
				c-2.991-3.305-7.178-7.539-11.693-11.426c-1.125-0.977-2.299-1.901-3.428-2.837c-0.566-0.464-1.128-0.926-1.688-1.382
				c-0.575-0.433-1.143-0.86-1.7-1.283c-1.12-0.838-2.198-1.651-3.224-2.421c-1.041-0.75-2.049-1.427-2.967-2.069
				c-0.92-0.636-1.764-1.218-2.514-1.734c-0.758-0.506-1.436-0.923-1.98-1.276c-1.102-0.706-1.73-1.107-1.73-1.107l-7.527,8.962
				c0,0,0.562,0.398,1.553,1.097c0.49,0.353,1.102,0.769,1.775,1.268c0.664,0.511,1.412,1.086,2.23,1.715
				c0.814,0.627,1.709,1.297,2.629,2.027c0.902,0.75,1.852,1.539,2.831,2.355c0.489,0.409,0.987,0.822,1.493,1.243
				c0.48,0.437,0.973,0.881,1.463,1.327c0.979,0.897,1.998,1.785,2.963,2.711c3.892,3.704,7.4,7.647,9.878,10.678
				c1.214,1.537,2.168,2.837,2.864,3.736c0.354,0.445,0.578,0.825,0.754,1.067c0.17,0.25,0.264,0.383,0.264,0.383l12.495-7.341
				C486.255,419.019,486.144,418.871,485.932,418.594z"/>
			<path fill="#89B730" d="M400.741,364.025c-1.055-0.386-2.197-0.801-3.406-1.241c-1.203-0.44-2.502-0.852-3.826-1.306
				c-2.667-0.881-5.481-1.884-8.356-2.743c-5.162-1.435-11.203-3.265-12.438-3.586c-1.229-0.325-2.331-0.656-3.383-0.947
				c-1.042-0.296-1.999-0.569-2.843-0.812c-0.848-0.261-1.586-0.488-2.192-0.677c-1.214-0.375-1.911-0.589-1.911-0.589l-2.794,6.449
				c0,0,0.706,0.253,1.944,0.7c0.616,0.221,1.366,0.494,2.23,0.801c0.875,0.292,1.86,0.622,2.934,0.983
				c1.076,0.354,6.969,2.27,11.154,3.651c1.351,0.488,2.721,0.983,4.094,1.479c2.752,0.959,5.439,2.061,7.982,3.033
				c1.268,0.5,2.503,0.956,3.649,1.435c1.149,0.481,2.234,0.933,3.233,1.351c1.997,0.844,3.673,1.522,4.827,2.034
				c1.149,0.517,1.805,0.812,1.805,0.812l4.303-8.203c0,0-0.695-0.273-1.912-0.754C404.614,365.423,402.849,364.8,400.741,364.025z"
				/>
		</g>
	</g>
	<g>
		<path fill="#89B730" d="M426.472,182.958c1.34-1.311,1.211-3.321-0.289-4.488l-33.028-25.722c-1.5-1.167-3.903-1.143-5.371,0.055
			l-33.143,27.039c-1.467,1.197-1.539,3.205-0.159,4.482l0.831,0.77c1.379,1.277,3.606,1.43,4.974,0.339l2.477-1.974v28.901
			c0,1.773,1.614,3.208,3.605,3.208h12.919c1.991,0,3.605-1.435,3.605-3.208V192.14h16.479v20.219
			c-0.029,1.772,1.396,3.208,3.387,3.208h13.69c1.99,0,3.605-1.436,3.605-3.209v-28.493c0,0,0.684,0.533,1.527,1.193
			c0.844,0.659,2.613,0.13,3.951-1.182L426.472,182.958z"/>
	</g>
</g>
</svg>
