<?xml version="1.0" encoding="utf-8"?>
<!-- Generator: Adobe Illustrator 16.0.0, SVG Export Plug-In . SVG Version: 6.00 Build 0)  -->
<!DOCTYPE svg PUBLIC "-//W3C//DTD SVG 1.1//EN" "http://www.w3.org/Graphics/SVG/1.1/DTD/svg11.dtd">
<svg version="1.1" xmlns="http://www.w3.org/2000/svg" xmlns:xlink="http://www.w3.org/1999/xlink" x="0px" y="0px" width="768px"
	 height="1024px" viewBox="0 0 768 1024" enable-background="new 0 0 768 1024" xml:space="preserve">
<g id="圖層_2">
	<rect x="86.158" y="89.105" fill="#FFFFFF" stroke="#000000" stroke-miterlimit="10" width="613.158" height="610.526"/>
	<path fill="#3094D6" d="M719.269,706.645c0,8.344-6.764,15.107-15.107,15.107H76.729c-8.344,0-15.107-6.764-15.107-15.107V79.213
		c0-8.344,6.764-15.107,15.107-15.107h627.432c8.344,0,15.107,6.764,15.107,15.107V706.645z M679.512,118.971
		c0-8.343-6.763-15.107-15.107-15.107H116.486c-8.344,0-15.108,6.764-15.108,15.107v547.916c0,8.346,6.764,15.109,15.108,15.109
		h547.918c8.345,0,15.107-6.764,15.107-15.109V118.971z"/>
</g>
<g id="圖層_1">
	<g>
		<path fill="#3094D6" d="M641.624,369.16l-10.537-35.45H466.178l-3.045-18.278h162.521l-10.537-35.451H457.232l-23.797-142.933
			h-36.174l0.397,14.948h-14.427l0.396-14.948h-36.172l-23.799,142.933H165.771l-10.536,35.451h162.52l-3.043,18.278H149.803
			l-10.537,35.45h169.543l-23.796,142.933h88.712l0.395-14.949h32.653l0.395,14.949h88.712L472.08,369.16H641.624L641.624,369.16z
			 M382.491,180.024h15.907l1.352,51.251H381.14L382.491,180.024z M380.4,259.304h20.091l1.352,51.252h-22.796L380.4,259.304z
			 M378.305,338.585h24.279l1.352,51.251h-26.983L378.305,338.585z M374.86,469.116l1.353-51.252h28.465l1.354,51.252H374.86z"/>
	</g>
	<rect x="148.339" y="567.631" fill="none" width="484.211" height="110.526"/>
	
		<text transform="matrix(1 0 0 1 235.728 653.6172)" fill="#3094D6" font-family="'Helvetica-Bold'" font-size="100" letter-spacing="5">ROAD</text>
</g>
</svg>
