<?xml version="1.0" encoding="utf-8"?>
<!-- Generator: Adobe Illustrator 16.0.0, SVG Export Plug-In . SVG Version: 6.00 Build 0)  -->
<!DOCTYPE svg PUBLIC "-//W3C//DTD SVG 1.1//EN" "http://www.w3.org/Graphics/SVG/1.1/DTD/svg11.dtd">
<svg version="1.1" xmlns="http://www.w3.org/2000/svg" xmlns:xlink="http://www.w3.org/1999/xlink" x="0px" y="0px" width="768px"
	 height="1024px" viewBox="0 0 768 1024" enable-background="new 0 0 768 1024" xml:space="preserve">
<g id="圖層_2">
	<rect x="86.158" y="89.105" fill="#FFFFFF" stroke="#000000" stroke-miterlimit="10" width="613.158" height="610.526"/>
	<path stroke="#000000" stroke-miterlimit="10" d="M719.269,706.645c0,8.344-6.764,15.107-15.107,15.107H76.729
		c-8.344,0-15.107-6.764-15.107-15.107V79.213c0-8.344,6.764-15.107,15.107-15.107h627.432c8.344,0,15.107,6.764,15.107,15.107
		V706.645z M679.512,118.971c0-8.343-6.763-15.107-15.107-15.107H116.486c-8.344,0-15.108,6.764-15.108,15.107v547.916
		c0,8.346,6.764,15.109,15.108,15.109h547.918c8.345,0,15.107-6.764,15.107-15.109V118.971z"/>
</g>
<g id="圖層_1">
	<rect x="101.378" y="567.631" fill="none" width="578.133" height="110.526"/>
	<text transform="matrix(1 0 0 1 108.0918 645.0186)" font-family="'Helvetica-Bold'" font-size="90" letter-spacing="-2">WHAT ELSE?</text>
	<g>
		<g>
			<g>
				<path d="M548.852,127.503H318.681c-19.503,0-35.371,15.867-35.371,35.371v152.567c0,19.503,15.867,35.371,35.371,35.371h10.574
					l11.252,53.475c0.598,2.842,2.616,5.179,5.34,6.185c0.951,0.351,1.939,0.522,2.923,0.522c1.838,0,3.657-0.599,5.157-1.755
					l75.852-58.428h119.073c19.504,0,35.371-15.867,35.371-35.371V162.875C584.223,143.37,568.356,127.503,548.852,127.503z
					 M567.329,315.442c0,10.188-8.29,18.477-18.478,18.477H426.903c-1.866,0-3.677,0.617-5.155,1.755l-67.48,51.978l-9.896-47.024
					c-0.823-3.909-4.272-6.708-8.266-6.708h-17.426c-10.188,0-18.478-8.29-18.478-18.477V162.875
					c0-10.188,8.29-18.477,18.478-18.477h230.171c10.188,0,18.478,8.29,18.478,18.477V315.442z"/>
				<path d="M267.578,469.349c22.493,0,40.79-18.298,40.79-40.792c0-22.493-18.3-40.791-40.79-40.791
					c-22.492,0-40.792,18.298-40.792,40.791C226.786,451.049,245.084,469.349,267.578,469.349z"/>
				<path d="M267.578,484.798c-38.482,0-69.791,31.306-69.791,69.79c0,4.666,3.782,8.446,8.447,8.446h122.685
					c4.664,0,8.446-3.78,8.446-8.446C337.365,516.106,306.058,484.798,267.578,484.798z"/>
				<path d="M431.312,161.603c-26.423,1.003-47.374,22.515-47.693,48.975c-0.146,12.164,4.153,23.917,12.111,33.097
					c4.021,4.641,6.237,10.379,6.237,16.162v17.596c0,4.664,3.781,8.446,8.445,8.446h45.654c4.664,0,8.446-3.782,8.446-8.446
					v-17.142c0-6.014,2.29-12.002,6.448-16.86c7.676-8.972,11.902-20.422,11.902-32.241c0-13.614-5.401-26.311-15.212-35.753
					C457.846,165.996,444.938,161.087,431.312,161.603z M458.124,232.448c-6.775,7.914-10.505,17.803-10.505,27.843v8.694h-28.761
					v-9.149c0-9.846-3.683-19.515-10.366-27.227c-5.245-6.05-8.08-13.802-7.982-21.827c0.209-17.158,14.313-31.647,31.443-32.298
					c8.987-0.343,17.515,2.897,23.981,9.122c6.471,6.23,10.034,14.606,10.034,23.585
					C465.97,218.985,463.183,226.534,458.124,232.448z"/>
				<path d="M446.963,297.492h-25.339c-4.665,0-8.447,3.782-8.447,8.447c0,4.666,3.782,8.448,8.447,8.448h25.339
					c4.666,0,8.447-3.782,8.447-8.448C455.41,301.274,451.629,297.492,446.963,297.492z"/>
				<path d="M330.479,185.499l22.859,13.197c1.33,0.769,2.783,1.133,4.215,1.133c2.92,0,5.76-1.515,7.325-4.225
					c2.332-4.04,0.948-9.205-3.093-11.537l-22.858-13.198c-4.041-2.333-9.205-0.95-11.538,3.091
					C325.056,178,326.439,183.166,330.479,185.499z"/>
				<path d="M359.33,213.026h-26.396c-4.664,0-8.446,3.782-8.446,8.447s3.782,8.447,8.446,8.447h26.396
					c4.665,0,8.447-3.782,8.447-8.447C367.776,216.808,363.994,213.026,359.33,213.026z"/>
				<path d="M353.338,244.249l-22.859,13.198c-4.04,2.333-5.423,7.499-3.091,11.538c1.565,2.71,4.405,4.225,7.323,4.225
					c1.433,0,2.887-0.365,4.216-1.133l22.858-13.198c4.041-2.333,5.425-7.499,3.093-11.539
					C362.544,243.301,357.378,241.917,353.338,244.249z"/>
				<path d="M507.866,199.829c1.432,0,2.885-0.366,4.216-1.133l22.858-13.197c4.04-2.333,5.424-7.499,3.092-11.539
					c-2.333-4.04-7.499-5.423-11.538-3.091l-22.858,13.198c-4.041,2.332-5.425,7.498-3.092,11.537
					C502.109,198.313,504.946,199.829,507.866,199.829z"/>
				<path d="M532.485,213.026H506.09c-4.664,0-8.446,3.782-8.446,8.447s3.782,8.447,8.446,8.447h26.396
					c4.665,0,8.448-3.782,8.448-8.447S537.15,213.026,532.485,213.026z"/>
				<path d="M534.94,257.446l-22.858-13.198c-4.04-2.333-9.205-0.95-11.538,3.091c-2.333,4.04-0.949,9.206,3.092,11.539
					l22.858,13.198c1.329,0.769,2.781,1.133,4.215,1.133c2.92,0,5.76-1.515,7.324-4.225
					C540.364,264.946,538.98,259.779,534.94,257.446z"/>
			</g>
		</g>
	</g>
</g>
</svg>
